<svg width="16" height="16" viewBox="0 0 16 16" fill="none" xmlns="http://www.w3.org/2000/svg">
<g clip-path="url(#clip0_0_36102)">
<path d="M4.67065 15.3315C4.80927 15.3319 4.94658 15.3048 5.0747 15.2519C5.20282 15.199 5.31921 15.1213 5.41718 15.0232L11.6912 8.74752C11.8889 8.54971 12 8.28148 12 8.00181C12 7.72214 11.8889 7.45391 11.6912 7.2561L5.44152 1.00639C5.34521 0.901918 5.2288 0.817982 5.09925 0.759615C4.9697 0.701248 4.8297 0.669654 4.68764 0.666728C4.54559 0.663803 4.4044 0.689606 4.27257 0.742591C4.14073 0.795575 4.02095 0.874647 3.92043 0.975064C3.8199 1.07548 3.7407 1.19517 3.68757 1.32695C3.63444 1.45873 3.60848 1.59989 3.61125 1.74195C3.61403 1.88401 3.64547 2.02404 3.70369 2.15365C3.76192 2.28326 3.84573 2.39977 3.95009 2.49619L9.45328 8.001L3.92413 13.5318C3.77635 13.6793 3.67569 13.8674 3.63488 14.0722C3.59408 14.277 3.61497 14.4892 3.69491 14.6821C3.77485 14.8751 3.91025 15.0399 4.08395 15.1558C4.25765 15.2717 4.46184 15.3334 4.67065 15.3332L4.67065 15.3315Z" fill="#2D4366"/>
</g>
<defs>
<clipPath id="clip0_0_36102">
<rect width="16" height="16" fill="white" transform="matrix(-1 8.74228e-08 8.74228e-08 1 16 0)"/>
</clipPath>
</defs>
</svg>
