<svg class="arrow" viewBox="0 0 10 10" fill="none" xmlns="http://www.w3.org/2000/svg">
<path d="M3.96693 7.91658C3.9121 7.9169 3.85774 7.90639 3.80697 7.88565C3.75621 7.86492 3.71003 7.83436 3.6711 7.79575C3.63205 7.75701 3.60105 7.71093 3.5799 7.66015C3.55874 7.60938 3.54785 7.55492 3.54785 7.49991C3.54785 7.44491 3.55874 7.39045 3.5799 7.33967C3.60105 7.2889 3.63205 7.24282 3.6711 7.20408L5.87943 4.99991L3.6711 2.79575C3.63225 2.7569 3.60143 2.71078 3.58041 2.66002C3.55938 2.60926 3.54856 2.55486 3.54856 2.49991C3.54856 2.44497 3.55938 2.39057 3.58041 2.33981C3.60143 2.28905 3.63225 2.24293 3.6711 2.20408C3.70995 2.16523 3.75607 2.13441 3.80683 2.11339C3.85759 2.09236 3.91199 2.08154 3.96693 2.08154C4.02188 2.08154 4.07628 2.09236 4.12704 2.11339C4.1778 2.13441 4.22392 2.16523 4.26277 2.20408L6.76277 4.70408C6.80182 4.74282 6.83282 4.7889 6.85397 4.83967C6.87513 4.89045 6.88602 4.94491 6.88602 4.99991C6.88602 5.05492 6.87513 5.10938 6.85397 5.16016C6.83282 5.21093 6.80182 5.25701 6.76277 5.29575L4.26277 7.79575C4.22383 7.83436 4.17766 7.86492 4.1269 7.88565C4.07613 7.90639 4.02177 7.9169 3.96693 7.91658Z"/>
</svg>
