<svg class="arrowDown" viewBox="0 0 24 24" fill="none" xmlns="http://www.w3.org/2000/svg">
<path d="M1.00244 7.00598C1.00193 7.2139 1.04253 7.41987 1.1219 7.61205C1.20128 7.80422 1.31787 7.97881 1.46496 8.12576L10.8785 17.5368C11.1752 17.8334 11.5775 18 11.997 18C12.4166 18 12.8189 17.8334 13.1156 17.5368L22.4902 8.16228C22.6469 8.01782 22.7728 7.84319 22.8603 7.64887C22.9479 7.45455 22.9953 7.24455 22.9997 7.03146C23.0041 6.81838 22.9653 6.6066 22.8859 6.40885C22.8064 6.21109 22.6878 6.03142 22.5372 5.88064C22.3865 5.72985 22.207 5.61104 22.0093 5.53135C21.8117 5.45166 21.5999 5.41272 21.3868 5.41688C21.1737 5.42104 20.9637 5.4682 20.7693 5.55554C20.5749 5.64288 20.4001 5.76859 20.2555 5.92514L11.9983 14.1799L3.7021 5.88619C3.4808 5.66453 3.19869 5.51353 2.89151 5.45232C2.58433 5.39111 2.26589 5.42245 1.97653 5.54237C1.68718 5.66228 1.43992 5.86537 1.26608 6.12592C1.09224 6.38647 0.999635 6.69276 1 7.00598L1.00244 7.00598Z" fill="currentColor"/>
</svg>
