<svg width="7" height="12" viewBox="0 0 7 12" fill="none" xmlns="http://www.w3.org/2000/svg">
<path d="M0.933868 11.8332C0.824196 11.8338 0.715477 11.8128 0.613946 11.7713C0.512414 11.7298 0.420068 11.6687 0.342202 11.5915C0.264095 11.514 0.202099 11.4219 0.159792 11.3203C0.117484 11.2188 0.0957031 11.1098 0.0957031 10.9998C0.0957031 10.8898 0.117484 10.7809 0.159792 10.6793C0.202099 10.5778 0.264095 10.4856 0.342202 10.4082L4.75887 5.99983L0.342202 1.5915C0.264503 1.5138 0.202869 1.42156 0.160818 1.32004C0.118768 1.21852 0.0971249 1.10971 0.0971249 0.999829C0.0971249 0.889946 0.118768 0.78114 0.160818 0.679621C0.202869 0.578103 0.264503 0.485861 0.342202 0.408162C0.4199 0.330464 0.512142 0.26883 0.61366 0.226779C0.715179 0.184729 0.823986 0.163086 0.933868 0.163086C1.04375 0.163086 1.15256 0.184729 1.25408 0.226779C1.35559 0.26883 1.44784 0.330464 1.52553 0.408162L6.52553 5.40816C6.60364 5.48563 6.66564 5.5778 6.70794 5.67935C6.75025 5.7809 6.77203 5.88982 6.77203 5.99983C6.77203 6.10984 6.75025 6.21876 6.70794 6.32031C6.66564 6.42186 6.60364 6.51403 6.52553 6.5915L1.52553 11.5915C1.44767 11.6687 1.35532 11.7298 1.25379 11.7713C1.15226 11.8128 1.04354 11.8338 0.933868 11.8332Z" fill="#2D4366"/>
</svg>
