<svg class="checkmark" viewBox="0 0 24 24" fill="none" xmlns="http://www.w3.org/2000/svg">
<path fill-rule="evenodd" clip-rule="evenodd" d="M12 2C17.523 2 22 6.47701 22 12C22 17.523 17.523 22 12 22C6.47701 22 2 17.523 2 12C2 6.47701 6.47701 2 12 2ZM10.8573 15.7765L16.7073 9.9265C17.0983 9.5365 17.0983 8.9035 16.7073 8.5125C16.3163 8.1225 15.6842 8.1225 15.2933 8.5125L10.8573 12.9485L8.70725 10.7985C8.31625 10.4075 7.68425 10.4075 7.29325 10.7985C6.90225 11.1895 6.90225 11.8215 7.29325 12.2125L10.8573 15.7765Z" fill="#F8AF5E"/>
</svg>
