<svg class="modal_xBtn" viewBox="0 0 21 21" fill="none" xmlns="http://www.w3.org/2000/svg">
<path d="M3.27107 0.375686C3.01866 0.131898 2.68059 -0.00299869 2.32968 5.05925e-05C1.97878 0.00309988 1.64311 0.143851 1.39497 0.391989C1.14683 0.640127 1.00608 0.975798 1.00303 1.3267C0.999981 1.67761 1.13488 2.01568 1.37867 2.26809L9.10754 9.99696L1.37733 17.7258C1.2495 17.8493 1.14755 17.997 1.0774 18.1603C1.00726 18.3235 0.970345 18.4992 0.968801 18.6769C0.967256 18.8546 1.00112 19.0308 1.06841 19.1953C1.1357 19.3597 1.23508 19.5092 1.36074 19.6348C1.4864 19.7605 1.63583 19.8599 1.8003 19.9272C1.96478 19.9945 2.14101 20.0283 2.31871 20.0268C2.49641 20.0252 2.67203 19.9883 2.83531 19.9182C2.99859 19.848 3.14627 19.7461 3.26973 19.6182L10.9999 11.8894L18.7288 19.6182C18.9812 19.862 19.3193 19.9969 19.6702 19.9939C20.0211 19.9908 20.3568 19.8501 20.6049 19.6019C20.8531 19.3538 20.9938 19.0181 20.9969 18.6672C20.9999 18.3163 20.865 17.9783 20.6212 17.7258L12.8923 9.99696L20.6212 2.26809C20.865 2.01568 20.9999 1.67761 20.9969 1.3267C20.9938 0.975798 20.8531 0.640127 20.6049 0.391989C20.3568 0.143851 20.0211 0.00309988 19.6702 5.05925e-05C19.3193 -0.00299869 18.9812 0.131898 18.7288 0.375686L10.9999 8.10456L3.27107 0.374348V0.375686Z" fill="currentColor"/>
</svg>
