<svg width="24" height="24" viewBox="0 0 24 24" fill="none" xmlns="http://www.w3.org/2000/svg">
<path fill-rule="evenodd" clip-rule="evenodd" d="M17.8112 16.2602L17.7492 16.3402L21.5932 20.1842C21.6858 20.2768 21.7591 20.3866 21.8092 20.5075C21.8593 20.6283 21.885 20.7579 21.885 20.8887C21.885 21.0196 21.8593 21.1491 21.8092 21.27C21.7591 21.3909 21.6858 21.5007 21.5932 21.5932C21.5007 21.6858 21.3909 21.7591 21.27 21.8092C21.1491 21.8593 21.0196 21.885 20.8887 21.885C20.7579 21.885 20.6283 21.8593 20.5075 21.8092C20.3866 21.7591 20.2768 21.6858 20.1842 21.5932L16.3392 17.7492L16.2592 17.8112C14.7261 19.0106 12.8358 19.6626 10.8892 19.6632C6.05123 19.6632 2.11523 15.7262 2.11523 10.8892C2.11523 6.05123 6.05123 2.11523 10.8892 2.11523C15.7262 2.11523 19.6632 6.05123 19.6632 10.8892C19.6626 12.8358 19.0106 14.7271 17.8112 16.2602ZM10.8902 4.10723C9.09237 4.10909 7.36867 4.82411 6.09739 6.09539C4.82611 7.36667 4.11109 9.09037 4.10923 10.8882C4.11082 12.6863 4.82573 14.4102 6.09704 15.6817C7.36835 16.9532 9.0922 17.6684 10.8902 17.6702C12.6884 17.6686 14.4126 16.9536 15.6841 15.6821C16.9556 14.4106 17.6706 12.6864 17.6722 10.8882C17.6704 9.0902 16.9552 7.36635 15.6837 6.09504C14.4122 4.82373 12.6883 4.10882 10.8902 4.10723Z" fill="white"/>
</svg>
